# xmcd CD database file
#
# Track frame offsets:
#	150
#	40912
#	65277
#	93092
#	112035
#	139110
#	157505
#	191775
#	212962
#	237120
#	262875
#
# Disc length: 4003 seconds
#
# Revision: 0
# Processed by: cddbd v1.5.2PL0 Copyright (c) Steve Scherf et al.
# Submitted via: CDex 1.70beta2
#
DISCID=8e0fa10b
DTITLE=Touloulou - Bonne Nouvelle
DYEAR=1998
DGENRE=Jazz
TTITLE0=Les Dauphins
TTITLE1=Musique en boîte
TTITLE2=Renaissance
TTITLE3=Cavalcade
TTITLE4=M'enfin
TTITLE5=Kalimba
TTITLE6=Dès l'aube
TTITLE7=Pak Oum Pak
TTITLE8=Domi's blues
TTITLE9=Tralala Poum Poum
TTITLE10=Royaume de l'ancêtre
EXTD=YEAR: 1998
EXTT0=
EXTT1=
EXTT2=
EXTT3=
EXTT4=
EXTT5=
EXTT6=
EXTT7=
EXTT8=
EXTT9=
EXTT10=
PLAYORDER=
